<?xml version="1.0" encoding="iso-8859-1"?>
<!-- Generator: Adobe Illustrator 19.0.0, SVG Export Plug-In . SVG Version: 6.00 Build 0)  -->
<svg version="1.1" id="Layer_1" xmlns="http://www.w3.org/2000/svg" xmlns:xlink="http://www.w3.org/1999/xlink" x="0px" y="0px"
	 viewBox="0 0 296.998 296.998" style="enable-background:new 0 0 296.998 296.998;" xml:space="preserve">
<g>
	<g>
		<path d="M260.767,59.435c-19.979,0-36.232,16.254-36.232,36.232c0,9.628,3.782,18.384,9.929,24.879l-30.377,45.782
			c-2.987-0.799-6.122-1.232-9.358-1.232c-9.399,0-17.973,3.599-24.418,9.489l-22.658-22.658c2.589-4.986,4.062-10.642,4.062-16.638
			c0-19.979-16.254-36.232-36.233-36.232S79.25,115.311,79.25,135.289c0,5.524,1.247,10.76,3.467,15.449l-25.783,20.877
			c-5.873-4.104-13.007-6.52-20.699-6.52C16.254,165.097,0,181.351,0,201.331c0,19.979,16.254,36.232,36.233,36.232
			c19.979,0,36.232-16.254,36.232-36.232c0-5.174-1.098-10.093-3.06-14.55l26.2-21.216c5.711,3.762,12.539,5.959,19.874,5.959
			c6.861,0,13.282-1.917,18.757-5.243l25.534,25.534c-0.827,3.034-1.276,6.222-1.276,9.515c0,19.979,16.254,36.232,36.233,36.232
			s36.232-16.254,36.232-36.232c0-9.658-3.806-18.439-9.987-24.94l30.352-45.745c3.012,0.814,6.175,1.255,9.441,1.255
			c19.979,0,36.233-16.254,36.233-36.233C297,75.689,280.746,59.435,260.767,59.435z M36.233,217.929
			c-9.153,0-16.599-7.446-16.599-16.598c0-9.153,7.446-16.599,16.599-16.599c9.152,0,16.598,7.446,16.598,16.599
			C52.832,210.482,45.385,217.929,36.233,217.929z M115.48,151.89c-9.152,0-16.598-7.446-16.598-16.599
			c0-9.152,7.446-16.598,16.598-16.598c9.153,0,16.599,7.446,16.599,16.598C132.079,144.444,124.633,151.89,115.48,151.89z
			 M194.728,217.929c-9.153,0-16.599-7.446-16.599-16.598c0-9.153,7.446-16.599,16.599-16.599c9.152,0,16.598,7.446,16.598,16.599
			C211.326,210.482,203.88,217.929,194.728,217.929z M260.767,112.267c-9.152,0-16.598-7.446-16.598-16.599
			c0-9.152,7.446-16.598,16.598-16.598c9.153,0,16.599,7.446,16.599,16.598C277.366,104.82,269.919,112.267,260.767,112.267z"/>
	</g>
</g>
<g>
</g>
<g>
</g>
<g>
</g>
<g>
</g>
<g>
</g>
<g>
</g>
<g>
</g>
<g>
</g>
<g>
</g>
<g>
</g>
<g>
</g>
<g>
</g>
<g>
</g>
<g>
</g>
<g>
</g>
</svg>
